<?xml version="1.0" encoding="UTF-8" standalone="no"?>
<!-- Created with Inkscape (http://www.inkscape.org/) -->

<svg xmlns:dc="http://purl.org/dc/elements/1.1/" xmlns:cc="http://creativecommons.org/ns#" xmlns:rdf="http://www.w3.org/1999/02/22-rdf-syntax-ns#" xmlns:svg="http://www.w3.org/2000/svg" xmlns="http://www.w3.org/2000/svg" xmlns:sodipodi="http://sodipodi.sourceforge.net/DTD/sodipodi-0.dtd" xmlns:inkscape="http://www.inkscape.org/namespaces/inkscape" width="401" height="101.5" id="svg2" sodipodi:version="0.32" inkscape:version="0.48.0 r9654" sodipodi:docname="cc-by-nc-nd.svg" version="1.0" inkscape:output_extension="org.inkscape.output.svg.inkscape" inkscape:export-filename="/media/YUG SOFT/My images/CC choice tree-en.png" inkscape:export-xdpi="50.210953" inkscape:export-ydpi="50.210953">
  <sodipodi:namedview id="base" pagecolor="#ffffff" bordercolor="#666666" borderopacity="1.0" gridtolerance="10000" guidetolerance="10" objecttolerance="10" inkscape:pageopacity="0.0" inkscape:pageshadow="2" inkscape:zoom="14.825281" inkscape:cx="155.83029" inkscape:cy="48.73987" inkscape:document-units="px" inkscape:current-layer="g3335" showgrid="false" inkscape:window-width="1024" inkscape:window-height="746" inkscape:window-x="0" inkscape:window-y="0" fit-margin-top="1" fit-margin-left="0.5" fit-margin-right="0.5" fit-margin-bottom="0.5" inkscape:window-maximized="0" />
  <defs id="defs4" />
  <metadata id="metadata7">
    <rdf:RDF>
      <cc:Work rdf:about="">
        <dc:format>image/svg+xml</dc:format>
        <dc:type rdf:resource="http://purl.org/dc/dcmitype/StillImage" />
        <dc:title></dc:title>
      </cc:Work>
    </rdf:RDF>
  </metadata>
  <g inkscape:label="Layer 1" inkscape:groupmode="layer" id="layer1" transform="translate(100.5,-689.56273)">
    <text xml:space="preserve" style="font-size:64px;font-style:normal;font-variant:normal;font-weight:normal;font-stretch:normal;fill:#000000;fill-opacity:1;stroke:none;font-family:AR PL UKai TW;-inkscape-font-specification:AR PL UKai TW" x="514.28571" y="55.219326" id="text2461"><tspan sodipodi:role="line" id="tspan2463" x="514.28571" y="55.219326" /></text>
    <text xml:space="preserve" style="font-size:64px;font-style:normal;font-variant:normal;font-weight:normal;font-stretch:normal;fill:#000000;fill-opacity:1;stroke:none;font-family:AR PL UKai TW;-inkscape-font-specification:AR PL UKai TW" x="-37.142857" y="452.36218" id="text3274"><tspan sodipodi:role="line" id="tspan3276" x="-37.142857" y="452.36218" /></text>
    <text xml:space="preserve" style="font-size:64px;font-style:normal;font-variant:normal;font-weight:normal;font-stretch:normal;fill:#000000;fill-opacity:1;stroke:none;font-family:AR PL UKai TW;-inkscape-font-specification:AR PL UKai TW" x="445.71429" y="32.362183" id="text3325"><tspan sodipodi:role="line" id="tspan3327" x="445.71429" y="32.362183" /></text>
    <g id="g3335">
      <path sodipodi:type="arc" style="fill:#ffffff;fill-opacity:1;stroke:#000000;stroke-width:2.66514945;stroke-miterlimit:4;stroke-dasharray:none" id="path3059" sodipodi:cx="98.166214" sodipodi:cy="851.03448" sodipodi:rx="15.331321" sodipodi:ry="9.3818531" d="m 113.49753,851.03448 c 0,5.18146 -6.86406,9.38186 -15.331316,9.38186 -8.467255,0 -15.331321,-4.2004 -15.331321,-9.38186 0,-5.18145 6.864066,-9.38185 15.331321,-9.38185 8.467256,0 15.331316,4.2004 15.331316,9.38185 z" transform="matrix(2.9351679,0,0,4.7964938,-238.13432,-3341.4189)" />
      <path transform="matrix(2.9351679,0,0,4.7964938,-338.13432,-3341.4189)" d="m 113.49753,851.03448 c 0,5.18146 -6.86406,9.38186 -15.331316,9.38186 -8.467255,0 -15.331321,-4.2004 -15.331321,-9.38186 0,-5.18145 6.864066,-9.38185 15.331321,-9.38185 8.467256,0 15.331316,4.2004 15.331316,9.38185 z" sodipodi:ry="9.3818531" sodipodi:rx="15.331321" sodipodi:cy="851.03448" sodipodi:cx="98.166214" id="path3829" style="fill:#ffffff;fill-opacity:1;stroke:#000000;stroke-width:2.66514945;stroke-miterlimit:4;stroke-dasharray:none" sodipodi:type="arc" />
      <path transform="matrix(2.9351679,0,0,4.7964938,-138.13432,-3341.4189)" d="m 113.49753,851.03448 c 0,5.18146 -6.86406,9.38186 -15.331316,9.38186 -8.467255,0 -15.331321,-4.2004 -15.331321,-9.38186 0,-5.18145 6.864066,-9.38185 15.331321,-9.38185 8.467256,0 15.331316,4.2004 15.331316,9.38185 z" sodipodi:ry="9.3818531" sodipodi:rx="15.331321" sodipodi:cy="851.03448" sodipodi:cx="98.166214" id="path3831" style="fill:#ffffff;fill-opacity:1;stroke:#000000;stroke-width:2.66514945;stroke-miterlimit:4;stroke-dasharray:none" sodipodi:type="arc" />
      <path transform="matrix(2.9351679,0,0,4.7964938,-38.13432,-3341.4189)" d="m 113.49753,851.03448 c 0,5.18146 -6.86406,9.38186 -15.331316,9.38186 -8.467255,0 -15.331321,-4.2004 -15.331321,-9.38186 0,-5.18145 6.864066,-9.38185 15.331321,-9.38185 8.467256,0 15.331316,4.2004 15.331316,9.38185 z" sodipodi:ry="9.3818531" sodipodi:rx="15.331321" sodipodi:cy="851.03448" sodipodi:cx="98.166214" id="path3833" style="fill:#ffffff;fill-opacity:1;stroke:#000000;stroke-width:2.66514945;stroke-miterlimit:4;stroke-dasharray:none" sodipodi:type="arc" />
      <g style="font-size:11.99999905px;font-style:normal;font-variant:normal;font-weight:normal;font-stretch:normal;text-align:start;line-height:125%;letter-spacing:0px;word-spacing:0px;writing-mode:lr-tb;text-anchor:start;fill:#000000;fill-opacity:1;stroke:none;font-family:Sans;-inkscape-font-specification:Sans" id="text3835">
        <path d="m -52.643509,733.39624 -9.197266,1.66016 c -0.309921,-1.83722 -1.01272,-3.22068 -2.108398,-4.15039 -1.095726,-0.92966 -2.517925,-1.39451 -4.266602,-1.39454 -2.324236,3e-5 -4.178075,0.80244 -5.561523,2.40723 -1.383477,1.60484 -2.075208,4.28876 -2.075195,8.05176 -1.3e-5,4.18361 0.702786,7.13868 2.108398,8.86523 1.405583,1.72657 3.292626,2.58985 5.661133,2.58985 1.770811,0 3.22068,-0.50358 4.349609,-1.51075 1.128881,-1.00715 1.925755,-2.73924 2.390625,-5.19628 l 9.164063,1.56054 c -0.951858,4.20574 -2.778028,7.38217 -5.478516,9.5293 -2.700549,2.14714 -6.319686,3.2207 -10.857422,3.2207 -5.157566,0 -9.269216,-1.62695 -12.334961,-4.88086 -3.065759,-3.2539 -4.598635,-7.75845 -4.598632,-13.51367 -3e-6,-5.82159 1.538407,-10.35381 4.615234,-13.59668 3.076812,-3.2428 7.238267,-4.86422 12.484375,-4.86426 4.294247,4e-5 7.708631,0.92419 10.243164,2.77246 2.534473,1.84834 4.355109,4.66507 5.461914,8.4502 z" style="font-size:68px;font-weight:bold;-inkscape-font-specification:Sans Bold" id="path3864" />
        <path d="m -14.791946,733.39624 -9.197266,1.66016 c -0.309922,-1.83722 -1.012721,-3.22068 -2.108398,-4.15039 -1.095727,-0.92966 -2.517926,-1.39451 -4.266602,-1.39454 -2.324237,3e-5 -4.178076,0.80244 -5.561523,2.40723 -1.383477,1.60484 -2.075208,4.28876 -2.075196,8.05176 -1.2e-5,4.18361 0.702787,7.13868 2.108399,8.86523 1.405583,1.72657 3.292625,2.58985 5.661132,2.58985 1.770812,0 3.22068,-0.50358 4.34961,-1.51075 1.12888,-1.00715 1.925755,-2.73924 2.390625,-5.19628 l 9.164062,1.56054 c -0.951858,4.20574 -2.778028,7.38217 -5.478515,9.5293 -2.700549,2.14714 -6.319686,3.2207 -10.857422,3.2207 -5.157567,0 -9.269216,-1.62695 -12.334961,-4.88086 -3.06576,-3.2539 -4.598636,-7.75845 -4.598633,-13.51367 -3e-6,-5.82159 1.538407,-10.35381 4.615234,-13.59668 3.076813,-3.2428 7.238267,-4.86422 12.484375,-4.86426 4.294247,4e-5 7.708632,0.92419 10.243165,2.77246 2.534472,1.84834 4.355108,4.66507 5.461914,8.4502 z" style="font-size:68px;font-weight:bold;-inkscape-font-specification:Sans Bold" id="path3866" />
      </g>
      <g style="font-size:11.99999905px;font-style:normal;font-variant:normal;font-weight:normal;font-stretch:normal;text-align:start;line-height:125%;letter-spacing:0px;word-spacing:0px;writing-mode:lr-tb;text-anchor:start;fill:#000000;fill-opacity:1;stroke:none;font-family:Sans;-inkscape-font-specification:Sans" id="text3839">
        <path d="m 230.9549,737.32477 0,-9.07031 36.03515,0 0,9.07031 z m 0,15.60937 0,-9.10547 36.03515,0 0,9.10547 z" style="font-size:72px;font-weight:bold;-inkscape-font-specification:Sans Bold" id="path3858" />
      </g>
      <g transform="scale(1.0587696,0.94449258)" style="font-size:11.83560753px;font-style:normal;font-variant:normal;font-weight:normal;font-stretch:normal;text-align:start;line-height:125%;letter-spacing:0px;word-spacing:0px;writing-mode:lr-tb;text-anchor:start;fill:#000000;fill-opacity:1;stroke:none;font-family:Sans;-inkscape-font-specification:Sans" id="text3843">
        <path d="m 126.31669,795.56109 7.77145,0 c 0.1488,2.96758 0.84049,5.06359 2.07506,6.28803 1.23455,1.22445 3.04521,1.83668 5.432,1.83667 2.15559,10e-6 3.87053,-0.65267 5.14485,-1.95803 1.27427,-1.30535 1.91141,-3.08423 1.91144,-5.33665 -3e-5,-0.79027 -0.0798,-1.5253 -0.23947,-2.20509 -0.15968,-0.67975 -0.37242,-1.23851 -0.63823,-1.6763 -0.96947,-1.58923 -3.01094,-2.75372 -6.12441,-3.49347 -0.54903,-0.13578 -0.6415,-0.23403 -0.2774,-0.29473 -4.95415,-1.12546 -8.46423,-2.77467 -10.53025,-4.94764 -2.06604,-2.17291 -3.09905,-5.00467 -3.09904,-8.49528 -1e-5,-3.75349 0.98641,-6.8966 2.95926,-9.42934 1.97283,-2.53264 4.48855,-4.07494 7.54715,-4.62689 l 0,-7.30768 7.61108,0 0,7.35319 c 2.69737,0.41759 4.98265,1.78543 6.85583,4.10352 1.87312,2.31819 2.9195,5.5115 3.13914,9.57995 l -8.00768,0 c -0.15317,-2.20469 -0.76323,-3.81525 -1.83017,-4.83169 -1.06699,-1.01636 -2.45,-1.52456 -4.14903,-1.5246 -1.83778,4e-5 -3.3035,0.5617 -4.39718,1.68497 -1.09371,1.12335 -1.64056,2.65373 -1.64055,4.59114 -1e-5,0.71953 0.0932,1.35307 0.27957,1.9006 0.18636,0.54761 0.4717,1.04461 0.85603,1.49101 0.81195,0.95792 2.61069,1.7446 5.39624,2.36004 1.83195,0.40024 3.21244,0.7701 4.14145,1.10959 3.40531,1.21509 5.99073,3.00408 7.75628,5.36698 1.76548,2.36296 2.64824,5.17702 2.64828,8.44219 -4e-5,4.10896 -1.07892,7.61796 -3.23666,10.52701 -2.15781,2.90906 -4.76165,4.57452 -7.81155,4.99639 l 0,8.79653 -7.61108,0 0,-8.45195 c -3.42558,-0.4681 -6.26492,-2.06747 -8.51804,-4.7981 -2.25313,-2.73062 -3.39126,-6.41407 -3.41437,-11.05037 z" style="font-size:71.01364899px;font-weight:bold;font-family:AvantGarde Md BT;-inkscape-font-specification:AvantGarde Md BT Bold" id="path3861" />
      </g>
      <rect style="fill:#ffffff;fill-opacity:1;stroke:#000000;stroke-width:10;stroke-linecap:round;stroke-linejoin:round;stroke-miterlimit:4;stroke-opacity:1;stroke-dasharray:none" id="rect3847" width="0.9724254" height="84.207848" x="-671.51025" y="308.2359" transform="matrix(0.27665494,-0.96096933,0.96096933,0.27665494,0,0)" />
      <path style="fill:#000000;fill-opacity:1;stroke:#000000;stroke-width:10;stroke-linecap:round;stroke-linejoin:round;stroke-miterlimit:4;stroke-opacity:1" d="m 41.436501,730.58899 17.127,0 0,16.80684 -17.127,0 z" id="rect3849" />
      <path style="fill:#000000;fill-opacity:1;stroke:#000000;stroke-width:10;stroke-linecap:round;stroke-linejoin:miter;stroke-miterlimit:4;stroke-opacity:1" d="m 46.155174,749.63672 7.689649,0 0,22.78241 -7.689649,0 z" id="rect3851" />
      <path style="fill:#000000;fill-opacity:1;stroke:#000000;stroke-width:10;stroke-linecap:round;stroke-linejoin:miter;stroke-miterlimit:4;stroke-opacity:1" d="m 41.436501,734.66943 17.127,0 0,16.80684 -17.127,0 z" id="rect3853" />
      <path transform="matrix(0.76374865,0,0,0.81609128,-62.548857,82.192601)" style="fill:#000000;fill-opacity:1;stroke:#000000;stroke-width:12.66646385;stroke-linecap:round;stroke-linejoin:miter;stroke-miterlimit:4;stroke-opacity:1" d="m 154.22851,773.00494 c 0,3.79131 -3.07346,6.86477 -6.86477,6.86477 -3.79131,0 -6.86477,-3.07346 -6.86477,-6.86477 0,-3.7913 3.07346,-6.86477 6.86477,-6.86477 3.79131,0 6.86477,3.07347 6.86477,6.86477 z" id="path3855" />
    </g>
  </g>
</svg>
